<svg height="539pt" viewBox="0.00 0.00 397.00 539.00" width="397pt" xmlns="http://www.w3.org/2000/svg" xmlns:xlink="http://www.w3.org/1999/xlink">
<g class="graph" id="graph0" transform="scale(1 1) rotate(0) translate(4 535)">
<title>G</title>
<polygon fill="#ffffff" points="-4,4 -4,-535 392.9971,-535 392.9971,4 -4,4" stroke="transparent"/>
<!-- 4523756176 -->
<g class="node" id="node1">
<title>4523756176</title>
<polygon fill="none" points="0,-486.5 0,-530.5 388.9971,-530.5 388.9971,-486.5 0,-486.5" stroke="#000000"/>
<text fill="#000000" font-family="Times,serif" font-size="14.00" text-anchor="middle" x="110.8398" y="-504.3">convolution2d_input_1 (InputLayer)</text>
<polyline fill="none" points="221.6797,-486.5 221.6797,-530.5 " stroke="#000000"/>
<text fill="#000000" font-family="Times,serif" font-size="14.00" text-anchor="middle" x="249.5142" y="-515.3">input:</text>
<polyline fill="none" points="221.6797,-508.5 277.3486,-508.5 " stroke="#000000"/>
<text fill="#000000" font-family="Times,serif" font-size="14.00" text-anchor="middle" x="249.5142" y="-493.3">output:</text>
<polyline fill="none" points="277.3486,-486.5 277.3486,-530.5 " stroke="#000000"/>
<text fill="#000000" font-family="Times,serif" font-size="14.00" text-anchor="middle" x="333.1729" y="-515.3">(None, 1, 28, 28)</text>
<polyline fill="none" points="277.3486,-508.5 388.9971,-508.5 " stroke="#000000"/>
<text fill="#000000" font-family="Times,serif" font-size="14.00" text-anchor="middle" x="333.1729" y="-493.3">(None, 1, 28, 28)</text>
</g>
<!-- 4523320656 -->
<g class="node" id="node2">
<title>4523320656</title>
<polygon fill="none" points="1.9277,-405.5 1.9277,-449.5 387.0693,-449.5 387.0693,-405.5 1.9277,-405.5" stroke="#000000"/>
<text fill="#000000" font-family="Times,serif" font-size="14.00" text-anchor="middle" x="107.3398" y="-423.3">convolution2d_1 (Convolution2D)</text>
<polyline fill="none" points="212.752,-405.5 212.752,-449.5 " stroke="#000000"/>
<text fill="#000000" font-family="Times,serif" font-size="14.00" text-anchor="middle" x="240.5864" y="-434.3">input:</text>
<polyline fill="none" points="212.752,-427.5 268.4209,-427.5 " stroke="#000000"/>
<text fill="#000000" font-family="Times,serif" font-size="14.00" text-anchor="middle" x="240.5864" y="-412.3">output:</text>
<polyline fill="none" points="268.4209,-405.5 268.4209,-449.5 " stroke="#000000"/>
<text fill="#000000" font-family="Times,serif" font-size="14.00" text-anchor="middle" x="327.7451" y="-434.3">(None, 1, 28, 28)</text>
<polyline fill="none" points="268.4209,-427.5 387.0693,-427.5 " stroke="#000000"/>
<text fill="#000000" font-family="Times,serif" font-size="14.00" text-anchor="middle" x="327.7451" y="-412.3">(None, 32, 24, 24)</text>
</g>
<!-- 4523756176&#45;&gt;4523320656 -->
<g class="edge" id="edge1">
<title>4523756176-&gt;4523320656</title>
<path d="M194.4985,-486.3664C194.4985,-478.1516 194.4985,-468.6579 194.4985,-459.7252" fill="none" stroke="#000000"/>
<polygon fill="#000000" points="197.9986,-459.6068 194.4985,-449.6068 190.9986,-459.6069 197.9986,-459.6068" stroke="#000000"/>
</g>
<!-- 4525562512 -->
<g class="node" id="node3">
<title>4525562512</title>
<polygon fill="none" points="2.3174,-324.5 2.3174,-368.5 386.6797,-368.5 386.6797,-324.5 2.3174,-324.5" stroke="#000000"/>
<text fill="#000000" font-family="Times,serif" font-size="14.00" text-anchor="middle" x="107.3398" y="-342.3">maxpooling2d_1 (MaxPooling2D)</text>
<polyline fill="none" points="212.3623,-324.5 212.3623,-368.5 " stroke="#000000"/>
<text fill="#000000" font-family="Times,serif" font-size="14.00" text-anchor="middle" x="240.1968" y="-353.3">input:</text>
<polyline fill="none" points="212.3623,-346.5 268.0313,-346.5 " stroke="#000000"/>
<text fill="#000000" font-family="Times,serif" font-size="14.00" text-anchor="middle" x="240.1968" y="-331.3">output:</text>
<polyline fill="none" points="268.0313,-324.5 268.0313,-368.5 " stroke="#000000"/>
<text fill="#000000" font-family="Times,serif" font-size="14.00" text-anchor="middle" x="327.3555" y="-353.3">(None, 32, 24, 24)</text>
<polyline fill="none" points="268.0313,-346.5 386.6797,-346.5 " stroke="#000000"/>
<text fill="#000000" font-family="Times,serif" font-size="14.00" text-anchor="middle" x="327.3555" y="-331.3">(None, 32, 12, 12)</text>
</g>
<!-- 4523320656&#45;&gt;4525562512 -->
<g class="edge" id="edge2">
<title>4523320656-&gt;4525562512</title>
<path d="M194.4985,-405.3664C194.4985,-397.1516 194.4985,-387.6579 194.4985,-378.7252" fill="none" stroke="#000000"/>
<polygon fill="#000000" points="197.9986,-378.6068 194.4985,-368.6068 190.9986,-378.6069 197.9986,-378.6068" stroke="#000000"/>
</g>
<!-- 4525562768 -->
<g class="node" id="node4">
<title>4525562768</title>
<polygon fill="none" points="40.8208,-243.5 40.8208,-287.5 348.1763,-287.5 348.1763,-243.5 40.8208,-243.5" stroke="#000000"/>
<text fill="#000000" font-family="Times,serif" font-size="14.00" text-anchor="middle" x="107.3398" y="-261.3">dropout_1 (Dropout)</text>
<polyline fill="none" points="173.8589,-243.5 173.8589,-287.5 " stroke="#000000"/>
<text fill="#000000" font-family="Times,serif" font-size="14.00" text-anchor="middle" x="201.6934" y="-272.3">input:</text>
<polyline fill="none" points="173.8589,-265.5 229.5278,-265.5 " stroke="#000000"/>
<text fill="#000000" font-family="Times,serif" font-size="14.00" text-anchor="middle" x="201.6934" y="-250.3">output:</text>
<polyline fill="none" points="229.5278,-243.5 229.5278,-287.5 " stroke="#000000"/>
<text fill="#000000" font-family="Times,serif" font-size="14.00" text-anchor="middle" x="288.8521" y="-272.3">(None, 32, 12, 12)</text>
<polyline fill="none" points="229.5278,-265.5 348.1763,-265.5 " stroke="#000000"/>
<text fill="#000000" font-family="Times,serif" font-size="14.00" text-anchor="middle" x="288.8521" y="-250.3">(None, 32, 12, 12)</text>
</g>
<!-- 4525562512&#45;&gt;4525562768 -->
<g class="edge" id="edge3">
<title>4525562512-&gt;4525562768</title>
<path d="M194.4985,-324.3664C194.4985,-316.1516 194.4985,-306.6579 194.4985,-297.7252" fill="none" stroke="#000000"/>
<polygon fill="#000000" points="197.9986,-297.6068 194.4985,-287.6068 190.9986,-297.6069 197.9986,-297.6068" stroke="#000000"/>
</g>
<!-- 4525887824 -->
<g class="node" id="node5">
<title>4525887824</title>
<polygon fill="none" points="48.9897,-162.5 48.9897,-206.5 340.0073,-206.5 340.0073,-162.5 48.9897,-162.5" stroke="#000000"/>
<text fill="#000000" font-family="Times,serif" font-size="14.00" text-anchor="middle" x="107.3398" y="-180.3">flatten_1 (Flatten)</text>
<polyline fill="none" points="165.6899,-162.5 165.6899,-206.5 " stroke="#000000"/>
<text fill="#000000" font-family="Times,serif" font-size="14.00" text-anchor="middle" x="193.5244" y="-191.3">input:</text>
<polyline fill="none" points="165.6899,-184.5 221.3589,-184.5 " stroke="#000000"/>
<text fill="#000000" font-family="Times,serif" font-size="14.00" text-anchor="middle" x="193.5244" y="-169.3">output:</text>
<polyline fill="none" points="221.3589,-162.5 221.3589,-206.5 " stroke="#000000"/>
<text fill="#000000" font-family="Times,serif" font-size="14.00" text-anchor="middle" x="280.6831" y="-191.3">(None, 32, 12, 12)</text>
<polyline fill="none" points="221.3589,-184.5 340.0073,-184.5 " stroke="#000000"/>
<text fill="#000000" font-family="Times,serif" font-size="14.00" text-anchor="middle" x="280.6831" y="-169.3">(None, 4608)</text>
</g>
<!-- 4525562768&#45;&gt;4525887824 -->
<g class="edge" id="edge4">
<title>4525562768-&gt;4525887824</title>
<path d="M194.4985,-243.3664C194.4985,-235.1516 194.4985,-225.6579 194.4985,-216.7252" fill="none" stroke="#000000"/>
<polygon fill="#000000" points="197.9986,-216.6068 194.4985,-206.6068 190.9986,-216.6069 197.9986,-216.6068" stroke="#000000"/>
</g>
<!-- 4542891728 -->
<g class="node" id="node6">
<title>4542891728</title>
<polygon fill="none" points="66.4966,-81.5 66.4966,-125.5 322.5005,-125.5 322.5005,-81.5 66.4966,-81.5" stroke="#000000"/>
<text fill="#000000" font-family="Times,serif" font-size="14.00" text-anchor="middle" x="121.3398" y="-99.3">dense_1 (Dense)</text>
<polyline fill="none" points="176.1831,-81.5 176.1831,-125.5 " stroke="#000000"/>
<text fill="#000000" font-family="Times,serif" font-size="14.00" text-anchor="middle" x="204.0176" y="-110.3">input:</text>
<polyline fill="none" points="176.1831,-103.5 231.8521,-103.5 " stroke="#000000"/>
<text fill="#000000" font-family="Times,serif" font-size="14.00" text-anchor="middle" x="204.0176" y="-88.3">output:</text>
<polyline fill="none" points="231.8521,-81.5 231.8521,-125.5 " stroke="#000000"/>
<text fill="#000000" font-family="Times,serif" font-size="14.00" text-anchor="middle" x="277.1763" y="-110.3">(None, 4608)</text>
<polyline fill="none" points="231.8521,-103.5 322.5005,-103.5 " stroke="#000000"/>
<text fill="#000000" font-family="Times,serif" font-size="14.00" text-anchor="middle" x="277.1763" y="-88.3">(None, 128)</text>
</g>
<!-- 4525887824&#45;&gt;4542891728 -->
<g class="edge" id="edge5">
<title>4525887824-&gt;4542891728</title>
<path d="M194.4985,-162.3664C194.4985,-154.1516 194.4985,-144.6579 194.4985,-135.7252" fill="none" stroke="#000000"/>
<polygon fill="#000000" points="197.9986,-135.6068 194.4985,-125.6068 190.9986,-135.6069 197.9986,-135.6068" stroke="#000000"/>
</g>
<!-- 4543633488 -->
<g class="node" id="node7">
<title>4543633488</title>
<polygon fill="none" points="69.9966,-.5 69.9966,-44.5 319.0005,-44.5 319.0005,-.5 69.9966,-.5" stroke="#000000"/>
<text fill="#000000" font-family="Times,serif" font-size="14.00" text-anchor="middle" x="124.8398" y="-18.3">dense_2 (Dense)</text>
<polyline fill="none" points="179.6831,-.5 179.6831,-44.5 " stroke="#000000"/>
<text fill="#000000" font-family="Times,serif" font-size="14.00" text-anchor="middle" x="207.5176" y="-29.3">input:</text>
<polyline fill="none" points="179.6831,-22.5 235.3521,-22.5 " stroke="#000000"/>
<text fill="#000000" font-family="Times,serif" font-size="14.00" text-anchor="middle" x="207.5176" y="-7.3">output:</text>
<polyline fill="none" points="235.3521,-.5 235.3521,-44.5 " stroke="#000000"/>
<text fill="#000000" font-family="Times,serif" font-size="14.00" text-anchor="middle" x="277.1763" y="-29.3">(None, 128)</text>
<polyline fill="none" points="235.3521,-22.5 319.0005,-22.5 " stroke="#000000"/>
<text fill="#000000" font-family="Times,serif" font-size="14.00" text-anchor="middle" x="277.1763" y="-7.3">(None, 10)</text>
</g>
<!-- 4542891728&#45;&gt;4543633488 -->
<g class="edge" id="edge6">
<title>4542891728-&gt;4543633488</title>
<path d="M194.4985,-81.3664C194.4985,-73.1516 194.4985,-63.6579 194.4985,-54.7252" fill="none" stroke="#000000"/>
<polygon fill="#000000" points="197.9986,-54.6068 194.4985,-44.6068 190.9986,-54.6069 197.9986,-54.6068" stroke="#000000"/>
</g>
</g>
</svg>